<svg xmlns="http://www.w3.org/2000/svg" xmlns:xlink="http://www.w3.org/1999/xlink" width="500" zoomAndPan="magnify" viewBox="0 0 375 374.999991" height="500" preserveAspectRatio="xMidYMid meet" version="1.2"><defs><clipPath id="fff3f3fd2e"><path d="M 8.34375 158 L 153 158 L 153 251 L 8.34375 251 Z M 8.34375 158 "/></clipPath><clipPath id="2cd23d89be"><path d="M 48 239 L 338 239 L 338 337.414062 L 48 337.414062 Z M 48 239 "/></clipPath><clipPath id="fd6e60a163"><path d="M 141 233 L 153 233 L 153 337.414062 L 141 337.414062 Z M 141 233 "/></clipPath><clipPath id="84ccc05fc2"><path d="M 221 37.414062 L 268 37.414062 L 268 78 L 221 78 Z M 221 37.414062 "/></clipPath></defs><g id="3f7643be2e"><rect x="0" width="375" y="0" height="374.999991" style="fill:#ffffff;fill-opacity:1;stroke:none;"/><rect x="0" width="375" y="0" height="374.999991" style="fill:#ffffff;fill-opacity:1;stroke:none;"/><path style=" stroke:none;fill-rule:nonzero;fill:#f6a136;fill-opacity:1;" d="M 156.152344 208.84375 L 178.414062 244.464844 L 350.828125 212.132812 L 328.566406 176.507812 Z M 175.621094 256.632812 C 173.660156 256.632812 171.789062 255.640625 170.730469 253.929688 L 141.890625 207.785156 C 140.878906 206.160156 140.742188 204.15625 141.507812 202.398438 C 142.273438 200.640625 143.851562 199.402344 145.722656 199.0625 L 330.300781 164.433594 C 332.644531 164.003906 335.011719 165.039062 336.25 167.046875 L 365.09375 213.191406 C 366.105469 214.8125 366.242188 216.820312 365.476562 218.578125 C 364.707031 220.332031 363.152344 221.574219 361.261719 221.910156 L 176.679688 256.519531 C 176.320312 256.585938 175.980469 256.632812 175.621094 256.632812 "/><g clip-rule="nonzero" clip-path="url(#fff3f3fd2e)"><path style=" stroke:none;fill-rule:nonzero;fill:#f6a136;fill-opacity:1;" d="M 24.160156 202.828125 L 105.117188 238.222656 L 136.730469 206.613281 L 55.796875 171.214844 Z M 106.402344 250.863281 C 105.613281 250.863281 104.824219 250.707031 104.082031 250.367188 L 11.792969 209.992188 C 10.058594 209.25 8.796875 207.671875 8.433594 205.777344 C 8.097656 203.90625 8.683594 201.992188 10.035156 200.640625 L 50.410156 160.265625 C 52.078125 158.574219 54.625 158.101562 56.8125 159.070312 L 149.101562 199.445312 C 150.835938 200.191406 152.097656 201.765625 152.4375 203.660156 C 152.796875 205.53125 152.210938 207.445312 150.859375 208.796875 L 110.480469 249.175781 C 109.378906 250.277344 107.914062 250.863281 106.402344 250.863281 "/></g><g clip-rule="nonzero" clip-path="url(#2cd23d89be)"><path style=" stroke:none;fill-rule:nonzero;fill:#f6a136;fill-opacity:1;" d="M 146.78125 337.386719 C 145.992188 337.386719 145.203125 337.230469 144.460938 336.890625 L 52.167969 296.535156 C 50.074219 295.613281 48.722656 293.539062 48.722656 291.242188 L 48.722656 245.097656 C 48.722656 241.917969 51.3125 239.328125 54.488281 239.328125 C 57.667969 239.328125 60.257812 241.917969 60.257812 245.097656 L 60.257812 287.480469 L 147.457031 325.625 L 325.59375 292.210938 L 325.59375 245.097656 C 325.59375 241.917969 328.183594 239.328125 331.363281 239.328125 C 334.539062 239.328125 337.128906 241.917969 337.128906 245.097656 L 337.128906 297.007812 C 337.128906 299.78125 335.148438 302.167969 332.421875 302.664062 L 147.839844 337.296875 C 147.480469 337.339844 147.140625 337.386719 146.78125 337.386719 "/></g><g clip-rule="nonzero" clip-path="url(#fd6e60a163)"><path style=" stroke:none;fill-rule:nonzero;fill:#f6a136;fill-opacity:1;" d="M 146.78125 337.386719 C 143.601562 337.386719 141.011719 334.796875 141.011719 331.617188 L 141.011719 239.328125 C 141.011719 236.152344 143.601562 233.558594 146.78125 233.558594 C 149.957031 233.558594 152.546875 236.152344 152.546875 239.328125 L 152.546875 331.617188 C 152.546875 334.796875 149.957031 337.386719 146.78125 337.386719 "/></g><g clip-rule="nonzero" clip-path="url(#84ccc05fc2)"><path style=" stroke:none;fill-rule:nonzero;fill:#f6a136;fill-opacity:1;" d="M 233.304688 66.285156 L 256.375 66.285156 L 256.375 48.980469 L 233.304688 48.980469 Z M 262.144531 77.820312 L 227.535156 77.820312 C 224.359375 77.820312 221.765625 75.226562 221.765625 72.050781 L 221.765625 43.210938 C 221.765625 40.035156 224.359375 37.441406 227.535156 37.441406 L 262.144531 37.441406 C 265.320312 37.441406 267.910156 40.035156 267.910156 43.210938 L 267.910156 72.050781 C 267.910156 75.226562 265.320312 77.820312 262.144531 77.820312 "/></g><path style=" stroke:none;fill-rule:nonzero;fill:#f6a136;fill-opacity:1;" d="M 267.910156 123.964844 L 290.984375 123.964844 L 290.984375 112.429688 L 267.910156 112.429688 Z M 296.753906 135.5 L 262.144531 135.5 C 258.964844 135.5 256.375 132.910156 256.375 129.734375 L 256.375 106.660156 C 256.375 103.484375 258.964844 100.890625 262.144531 100.890625 L 296.753906 100.890625 C 299.929688 100.890625 302.519531 103.484375 302.519531 106.660156 L 302.519531 129.734375 C 302.519531 132.910156 299.929688 135.5 296.753906 135.5 "/><path style=" stroke:none;fill-rule:nonzero;fill:#f6a136;fill-opacity:1;" d="M 308.289062 158.574219 C 305.113281 158.574219 302.519531 155.984375 302.519531 152.804688 L 302.519531 148.390625 C 302.519531 142.644531 299.320312 137.460938 294.160156 134.894531 C 291.324219 133.472656 290.171875 130.003906 291.59375 127.140625 C 293.011719 124.304688 296.480469 123.132812 299.34375 124.574219 C 308.425781 129.125 314.058594 138.25 314.058594 148.390625 L 314.058594 152.804688 C 314.058594 155.984375 311.464844 158.574219 308.289062 158.574219 "/><path style=" stroke:none;fill-rule:nonzero;fill:#f6a136;fill-opacity:1;" d="M 250.605469 170.109375 C 247.429688 170.109375 244.839844 167.519531 244.839844 164.34375 L 244.839844 148.390625 C 244.839844 138.25 250.472656 129.125 259.550781 124.574219 C 262.414062 123.132812 265.882812 124.304688 267.304688 127.140625 C 268.722656 130.003906 267.574219 133.472656 264.734375 134.894531 C 259.574219 137.460938 256.375 142.644531 256.375 148.390625 L 256.375 164.34375 C 256.375 167.519531 253.785156 170.109375 250.605469 170.109375 "/><path style=" stroke:none;fill-rule:nonzero;fill:#f6a136;fill-opacity:1;" d="M 273.679688 89.355469 C 270.503906 89.355469 267.910156 86.765625 267.910156 83.585938 C 267.910156 82.234375 267.144531 80.996094 265.953125 80.410156 L 259.550781 77.210938 C 256.714844 75.792969 255.5625 72.320312 256.984375 69.460938 C 258.402344 66.621094 261.875 65.449219 264.734375 66.890625 L 271.089844 70.070312 C 276.25 72.660156 279.449219 77.820312 279.449219 83.585938 C 279.449219 86.765625 276.855469 89.355469 273.679688 89.355469 "/><path style=" stroke:none;fill-rule:nonzero;fill:#f6a136;fill-opacity:1;" d="M 216 89.355469 C 212.820312 89.355469 210.230469 86.765625 210.230469 83.585938 C 210.230469 77.820312 213.429688 72.660156 218.589844 70.070312 L 224.945312 66.890625 C 227.804688 65.449219 231.273438 66.621094 232.695312 69.460938 C 234.113281 72.320312 232.964844 75.792969 230.125 77.210938 L 223.75 80.410156 C 222.53125 80.996094 221.765625 82.234375 221.765625 83.585938 C 221.765625 86.765625 219.175781 89.355469 216 89.355469 "/><path style=" stroke:none;fill-rule:nonzero;fill:#f6a136;fill-opacity:1;" d="M 192.925781 181.648438 C 189.75 181.648438 187.15625 179.054688 187.15625 175.878906 L 187.15625 118.195312 C 187.15625 115.449219 189.09375 113.082031 191.800781 112.542969 L 220.640625 106.773438 C 222.328125 106.414062 224.085938 106.863281 225.417969 107.96875 C 226.746094 109.070312 227.535156 110.695312 227.535156 112.429688 L 227.535156 170.109375 C 227.535156 173.289062 224.945312 175.878906 221.765625 175.878906 C 218.589844 175.878906 216 173.289062 216 170.109375 L 216 119.457031 L 198.695312 122.929688 L 198.695312 175.878906 C 198.695312 179.054688 196.101562 181.648438 192.925781 181.648438 "/><path style=" stroke:none;fill-rule:nonzero;fill:#f6a136;fill-opacity:1;" d="M 221.765625 118.195312 C 220.574219 118.195312 219.402344 117.835938 218.363281 117.09375 L 156.964844 72.433594 L 135.242188 76.78125 L 135.242188 89.355469 C 135.242188 92.53125 132.652344 95.125 129.476562 95.125 C 126.300781 95.125 123.707031 92.53125 123.707031 89.355469 L 123.707031 72.050781 C 123.707031 69.300781 125.644531 66.9375 128.347656 66.394531 L 157.191406 60.628906 C 158.765625 60.3125 160.414062 60.671875 161.71875 61.621094 L 225.167969 107.765625 C 227.738281 109.632812 228.300781 113.238281 226.429688 115.832031 C 225.304688 117.363281 223.546875 118.195312 221.765625 118.195312 "/><path style=" stroke:none;fill-rule:nonzero;fill:#f6a136;fill-opacity:1;" d="M 192.925781 123.964844 C 191.753906 123.964844 190.558594 123.605469 189.523438 122.859375 L 126.074219 76.714844 C 123.503906 74.84375 122.941406 71.242188 124.8125 68.648438 C 126.683594 66.082031 130.285156 65.515625 132.878906 67.386719 L 196.328125 113.53125 C 198.898438 115.402344 199.460938 119.007812 197.589844 121.597656 C 196.464844 123.132812 194.707031 123.964844 192.925781 123.964844 "/><path style=" stroke:none;fill-rule:nonzero;fill:#f6a136;fill-opacity:1;" d="M 83.332031 129.734375 L 141.011719 129.734375 L 141.011719 118.195312 L 83.332031 118.195312 Z M 146.78125 141.269531 L 77.5625 141.269531 C 74.386719 141.269531 71.792969 138.679688 71.792969 135.5 L 71.792969 112.429688 C 71.792969 109.25 74.386719 106.660156 77.5625 106.660156 L 146.78125 106.660156 C 149.957031 106.660156 152.546875 109.25 152.546875 112.429688 L 152.546875 135.5 C 152.546875 138.679688 149.957031 141.269531 146.78125 141.269531 "/><path style=" stroke:none;fill-rule:nonzero;fill:#f6a136;fill-opacity:1;" d="M 152.546875 187.414062 C 149.371094 187.414062 146.78125 184.824219 146.78125 181.648438 L 146.78125 171.460938 C 146.78125 165.714844 143.582031 160.535156 138.421875 157.964844 C 136.484375 156.996094 135.242188 154.992188 135.242188 152.804688 L 135.242188 135.5 C 135.242188 132.324219 137.835938 129.734375 141.011719 129.734375 C 144.1875 129.734375 146.78125 132.324219 146.78125 135.5 L 146.78125 149.515625 C 153.96875 154.449219 158.316406 162.5625 158.316406 171.460938 L 158.316406 181.648438 C 158.316406 184.824219 155.726562 187.414062 152.546875 187.414062 "/><path style=" stroke:none;fill-rule:nonzero;fill:#f6a136;fill-opacity:1;" d="M 78.960938 161.503906 C 77.359375 161.503906 75.761719 160.847656 74.609375 159.519531 C 72.515625 157.132812 72.761719 153.480469 75.175781 151.386719 C 75.917969 150.734375 76.730469 150.101562 77.5625 149.539062 L 77.5625 135.5 C 77.5625 132.324219 80.152344 129.734375 83.332031 129.734375 C 86.507812 129.734375 89.097656 132.324219 89.097656 135.5 L 89.097656 152.804688 C 89.097656 154.992188 87.859375 156.996094 85.921875 157.964844 C 84.773438 158.527344 83.714844 159.25 82.746094 160.082031 C 81.664062 161.03125 80.3125 161.503906 78.960938 161.503906 "/></g></svg>