<svg xmlns="http://www.w3.org/2000/svg" xmlns:xlink="http://www.w3.org/1999/xlink" width="500" zoomAndPan="magnify" viewBox="0 0 375 374.999991" height="500" preserveAspectRatio="xMidYMid meet" version="1.2"><defs><clipPath id="def615a5eb"><path d="M 25 27 L 351.617188 27 L 351.617188 347 L 25 347 Z M 25 27 "/></clipPath></defs><g id="7f175e0dc3"><rect x="0" width="375" y="0" height="374.999991" style="fill:#ffffff;fill-opacity:1;stroke:none;"/><rect x="0" width="375" y="0" height="374.999991" style="fill:#ffffff;fill-opacity:1;stroke:none;"/><g clip-rule="nonzero" clip-path="url(#def615a5eb)"><path style=" stroke:none;fill-rule:nonzero;fill:#f6a136;fill-opacity:1;" d="M 351.59375 248.363281 C 351.59375 245.945312 350.816406 243.835938 348.957031 242.363281 C 347.140625 240.910156 345.253906 239.265625 343.148438 238.46875 C 336.6875 236.023438 330.253906 233.4375 323.578125 231.9375 C 305.3125 227.796875 286.707031 226.441406 267.984375 227.386719 C 266.773438 227.433594 265.589844 227.386719 264.570312 227.386719 C 264.355469 227.167969 264.261719 227.09375 264.261719 227.023438 C 263.96875 225.597656 263.75 224.167969 263.460938 222.738281 C 256.925781 188.121094 242.171875 157.636719 218.148438 131.730469 C 209.898438 122.847656 200.730469 114.988281 190.90625 107.878906 C 190.15625 107.320312 189.285156 106.207031 189.3125 105.410156 C 189.480469 102.117188 189.84375 98.804688 190.402344 95.539062 C 190.667969 93.964844 191.179688 92.226562 192.191406 91.039062 C 201.214844 79.957031 210.382812 69.023438 219.453125 58.015625 C 223.253906 53.445312 222.550781 49.984375 217.300781 47.007812 C 210.113281 42.945312 202.375 40.523438 194.222656 39.894531 C 186.09375 39.21875 177.867188 39.171875 169.667969 39.097656 C 165.769531 39.070312 162.359375 38.347656 159.144531 36.125 C 156.363281 34.1875 153.363281 32.566406 150.363281 30.921875 C 144.507812 27.777344 138.21875 26.90625 131.707031 27.898438 C 112.328125 30.945312 97.160156 40.816406 85.625 56.46875 C 82.40625 60.796875 82.886719 63.820312 87.386719 66.847656 C 92.832031 70.644531 97.453125 75.242188 101.273438 80.636719 C 102.53125 82.476562 103.71875 84.410156 104.902344 86.25 C 101.152344 88.835938 100.789062 89.539062 100.835938 93.894531 C 100.835938 96.214844 100.597656 98.609375 100.910156 100.933594 C 101.222656 103.257812 100.257812 104.539062 98.5625 105.941406 C 68.929688 129.769531 47.058594 159.191406 34.308594 195.140625 C 27.027344 215.535156 23.058594 236.363281 26.324219 258.039062 C 28.914062 275.171875 35.398438 290.554688 48.222656 302.601562 C 60.703125 314.214844 75.875 320.167969 92.488281 322.679688 C 109.542969 325.292969 126.792969 325.582031 143.949219 325.875 C 163.835938 326.308594 183.71875 325.535156 203.65625 321.863281 C 203.703125 322.679688 203.851562 323.265625 203.824219 323.796875 C 203.265625 328.875 205.710938 332.308594 209.992188 334.390625 C 214.082031 336.421875 218.339844 338.308594 222.742188 339.613281 C 233.53125 342.910156 244.613281 344.257812 255.789062 345.328125 C 282.039062 347.839844 307.976562 345.953125 333.519531 339.226562 C 338.699219 337.871094 343.753906 335.933594 347.964844 332.453125 C 350.167969 330.667969 351.617188 328.488281 351.617188 325.4375 C 351.566406 299.75 351.566406 274.054688 351.59375 248.363281 Z M 206.65625 55.210938 C 197.65625 66.074219 188.921875 76.597656 180.261719 87.074219 C 179.222656 75.050781 178.253906 63.097656 177.214844 50.929688 C 186.867188 50.636719 196.765625 51.171875 206.65625 55.210938 Z M 98.804688 60.386719 C 98.664062 60.21875 98.515625 60 98.347656 59.78125 C 98.390625 59.585938 98.390625 59.300781 98.539062 59.128906 C 108.167969 48.75 119.683594 41.714844 133.957031 39.582031 C 137.636719 39.050781 141.097656 39.707031 144.335938 41.421875 C 147.386719 43.019531 150.3125 45 153.433594 46.550781 C 156.433594 48.050781 159.652344 49.1875 162.722656 50.613281 C 163.398438 50.929688 164.320312 51.558594 164.464844 52.210938 C 167.367188 64.160156 168.140625 76.328125 167.976562 89.105469 C 162.121094 89.320312 156.53125 89.925781 151.015625 89.753906 C 141.097656 89.539062 131.222656 88.835938 121.355469 88.207031 C 120.339844 88.183594 118.910156 87.433594 118.523438 86.636719 C 113.613281 76.597656 107.25 67.742188 98.804688 60.386719 Z M 209.078125 240.1875 C 205.570312 242.382812 203.800781 245.429688 203.824219 249.839844 C 203.996094 268.585938 203.925781 287.3125 203.871094 306.039062 C 203.871094 310.683594 204.308594 309.714844 200.097656 310.488281 C 182.269531 313.875 164.171875 314.554688 146.078125 314.066406 C 131.394531 313.679688 116.6875 313 102.09375 311.9375 C 88.0625 310.972656 74.78125 307.296875 62.976562 299.265625 C 49.089844 289.777344 41.714844 276.230469 38.472656 260.074219 C 35.105469 243.332031 37.0625 226.855469 41.664062 210.648438 C 52.015625 173.875 72.386719 143.585938 101.320312 118.886719 C 103.597656 116.925781 106.113281 115.210938 108.195312 113.082031 C 110.609375 110.613281 113.054688 110.664062 116.027344 112.089844 C 115.015625 113.445312 114.117188 114.703125 113.222656 116.03125 C 107.707031 123.824219 103.089844 132.070312 100.089844 141.167969 C 99.726562 142.183594 99.386719 143.347656 99.3125 144.457031 C 99.050781 147.410156 100.765625 149.878906 103.453125 150.53125 C 106.402344 151.257812 109.140625 149.855469 110.300781 146.953125 C 111.4375 144.242188 112.308594 141.457031 113.519531 138.773438 C 117.21875 130.378906 122.175781 122.683594 128.128906 115.671875 C 128.855469 114.871094 130.304688 114.195312 131.394531 114.265625 C 146.222656 115.304688 161.03125 115.085938 175.835938 113.421875 C 176.757812 113.273438 177.890625 113.757812 178.738281 114.292969 C 212.921875 136.449219 235.566406 167.34375 247.375 206.148438 C 249.40625 212.707031 250.589844 219.503906 252.09375 226.253906 C 252.234375 226.90625 252.234375 227.65625 252.332031 228.5 C 248.097656 229.132812 244.011719 229.710938 239.921875 230.367188 C 231.382812 231.820312 222.886719 233.582031 214.882812 237.089844 C 212.898438 237.984375 210.960938 239.046875 209.078125 240.1875 Z M 222.1875 246.476562 C 230.917969 244.394531 239.679688 242.027344 248.535156 240.789062 C 270.019531 237.738281 291.597656 238.007812 313.003906 241.609375 C 320.167969 242.84375 327.15625 244.996094 334.171875 246.980469 C 336.183594 247.5625 337.894531 249.011719 339.761719 250.078125 C 339.785156 250.394531 339.8125 250.707031 339.832031 251.066406 C 337.679688 252.25 335.671875 253.898438 333.375 254.527344 C 326.695312 256.390625 319.96875 258.328125 313.125 259.4375 C 293.648438 262.632812 274.007812 262.777344 254.386719 260.894531 C 244.152344 259.875 233.914062 258.566406 224.117188 255.160156 C 221.09375 254.097656 217.996094 252.957031 215.386719 249.765625 C 217.882812 248.53125 219.9375 247.054688 222.1875 246.476562 Z M 215.390625 295.441406 C 215.558594 293.261719 215.464844 291.136719 215.464844 289.101562 C 257.171875 301.199219 298.371094 301.539062 339.929688 289.003906 C 339.929688 291.765625 340.246094 294.910156 339.8125 297.90625 C 339.617188 299.066406 337.921875 300.421875 336.640625 300.910156 C 331.609375 302.839844 326.503906 304.921875 321.28125 306.085938 C 300.0625 310.683594 278.601562 311.40625 257.117188 309.28125 C 247.542969 308.308594 238.035156 306.519531 228.570312 304.683594 C 225.089844 304.003906 221.726562 302.167969 218.414062 300.714844 C 216.261719 299.75 215.222656 297.957031 215.390625 295.441406 Z M 339.882812 322.246094 C 339.789062 323.359375 338.628906 324.859375 337.585938 325.292969 C 333.8125 326.890625 329.964844 328.488281 325.972656 329.457031 C 304.707031 334.484375 283.132812 335.457031 261.402344 334.101562 C 249.742188 333.375 238.109375 332.164062 226.785156 329.019531 C 223.710938 328.199219 220.738281 326.746094 217.761719 325.535156 C 216.214844 324.859375 215.464844 323.601562 215.464844 321.808594 C 215.539062 318.859375 215.488281 315.90625 215.488281 313 C 256.980469 324.761719 298.273438 325.535156 339.980469 312.761719 C 339.980469 315.8125 340.199219 319.050781 339.882812 322.246094 Z M 339.859375 273.425781 C 339.667969 274.632812 338.359375 276.230469 337.148438 276.765625 C 332.480469 278.648438 327.714844 280.78125 322.804688 281.839844 C 299.289062 287.214844 275.558594 287.746094 251.707031 284.941406 C 242.875 283.875 234.1875 281.839844 225.480469 279.910156 C 222.867188 279.328125 220.421875 277.878906 217.953125 276.570312 C 216.164062 275.652344 215.339844 274.105469 215.414062 271.976562 C 215.539062 269.554688 215.464844 267.136719 215.464844 264.960938 C 257.195312 276.523438 298.421875 276.617188 339.957031 265.058594 C 339.957031 267.621094 340.25 270.570312 339.859375 273.425781 Z M 339.859375 273.425781 "/></g><path style=" stroke:none;fill-rule:evenodd;fill:#f6a136;fill-opacity:1;" d="M 179.539062 251.335938 C 176.757812 248.699219 175.449219 245.75 170.582031 249.8125 C 159.023438 259.542969 142.789062 258.039062 134.003906 247.371094 C 131.296875 244.082031 129.480469 240.113281 128.125 235.875 L 152.753906 235.875 L 152.753906 222.5 L 126.023438 222.5 C 125.949219 219.910156 125.925781 217.300781 126.21875 214.761719 L 152.753906 214.761719 L 152.753906 201.429688 L 129.507812 201.429688 C 136.789062 183.503906 154.0625 177.578125 168.796875 188.316406 C 172.929688 191.292969 174.699219 189.890625 176.125 187.882812 C 176.949219 186.722656 179.828125 183.457031 180.070312 182.96875 C 181.496094 180.5 178.207031 179.074219 176.464844 177.671875 C 156.019531 161.609375 125.636719 170.535156 114.679688 196.007812 C 114.679688 196.007812 113.808594 198.089844 112.863281 201.429688 L 100.089844 201.429688 L 100.089844 214.761719 L 110.664062 214.761719 C 110.464844 217.179688 110.417969 219.769531 110.539062 222.5 L 100.089844 222.5 L 100.089844 235.875 L 112.351562 235.875 C 112.910156 238.371094 113.539062 240.910156 114.40625 243.523438 C 123.746094 270.570312 158.488281 278.074219 178.882812 260.027344 C 182.296875 256.972656 183.117188 254.773438 179.539062 251.335938 Z M 179.539062 251.335938 "/></g></svg>